# xmcd
#
# Track frame offsets: 
#        150
#        7715
#        22829
#        35518
#        56235
#        65770
#        71820
#        79669
#        85156
#        98245
#        118543
#        134673
#        138584
#        145084
#        157744
#        164659
#        181736
#        189807
#        210851
#
# Disc length: 3293 seconds
#
# Revision: 1
# Processed by: cddbd v1.5.2PL0 Copyright (c) Steve Scherf et al.
# Submitted via: ExactAudioCopy v0.99pb4
#
DISCID=f90cdb13
DTITLE=Noël Akchoté - Sonny II
DYEAR=2004
DGENRE=Jazz
TTITLE0=Blind Willie
TTITLE1=Sonny
TTITLE2=Melvins
TTITLE3=Gary's Step
TTITLE4=Peanut
TTITLE5=She's only Fourteen
TTITLE6=Number one free
TTITLE7=Marpassa Dawn
TTITLE8=There is a Mountain
TTITLE9=Joe
TTITLE10=Dance with me Montana
TTITLE11=Soon
TTITLE12=Dick Dogs
TTITLE13=Portrait of Lynda in Three Colors, All Black
TTITLE14=Black Woman
TTITLE15=Terry
TTITLE16=Bialero
TTITLE17=Young and Foolish
TTITLE18=Long Tale
EXTD=YEAR: 2004
EXTT0=
EXTT1=
EXTT2=
EXTT3=
EXTT4=
EXTT5=
EXTT6=
EXTT7=
EXTT8=
EXTT9=
EXTT10=
EXTT11=
EXTT12=
EXTT13=
EXTT14=
EXTT15=
EXTT16=
EXTT17=
EXTT18=
PLAYORDER=
